<svg id="Capa_1" enable-background="new 0 0 512 512" height="512" viewBox="0 0 512 512" width="512" xmlns="http://www.w3.org/2000/svg"><g><g id="Page-1"><g id="_x30_01---Loyalty-Card"><path id="Shape" d="m203.034 229.517c0 4.875 3.952 8.828 8.828 8.828h88.276c4.875 0 8.828-3.952 8.828-8.828v-8.828h-105.932z"/><circle id="Oval" cx="176.552" cy="150.069" r="8.828"/><path id="Shape_1_" d="m335.448 291.31h-44.138c-4.875 0-8.828 3.952-8.828 8.828s3.952 8.828 8.828 8.828h44.138c4.875 0 8.828-3.952 8.828-8.828s-3.952-8.828-8.828-8.828z"/><path id="Shape_2_" d="m285.272 176.102c-.9.296-1.842.448-2.79.45-3.103.001-5.979-1.628-7.574-4.29l-13.612-22.731c-3.495.718-7.099.718-10.593 0l-13.612 22.731c-1.595 2.662-4.471 4.291-7.574 4.29-.948-.002-1.889-.154-2.79-.45l-29.405-9.807c-1.548 2.018-3.379 3.802-5.438 5.297l8.978 31.444h110.274l8.978-31.453c-2.058-1.494-3.89-3.278-5.438-5.297z"/><circle id="Oval_1_" cx="256" cy="123.586" r="8.828"/><path id="Shape_3_" d="m476.69 70.621h-441.38c-19.501 0-35.31 15.809-35.31 35.31v300.138c0 19.501 15.809 35.31 35.31 35.31h441.38c19.501 0 35.31-15.809 35.31-35.31v-300.138c0-19.501-15.809-35.31-35.31-35.31zm-414.897 203.034h44.138c14.626 0 26.483 11.857 26.483 26.483s-11.857 26.483-26.483 26.483h-44.138c-14.626 0-26.483-11.857-26.483-26.483s11.857-26.483 26.483-26.483zm70.621 132.414h-88.276c-4.875 0-8.828-3.952-8.828-8.828 0-4.875 3.952-8.828 8.828-8.828h88.276c4.875 0 8.828 3.952 8.828 8.828-.001 4.876-3.953 8.828-8.828 8.828zm70.62-35.31h-158.896c-4.875 0-8.828-3.952-8.828-8.828s3.952-8.828 8.828-8.828h158.897c4.875 0 8.828 3.952 8.828 8.828s-3.953 8.828-8.829 8.828zm17.656-44.138h-44.138c-14.626 0-26.483-11.857-26.483-26.483s11.857-26.483 26.483-26.483h44.138c14.626 0 26.483 11.857 26.483 26.483-.001 14.626-11.857 26.483-26.483 26.483zm114.758 0h-44.138c-14.626 0-26.483-11.857-26.483-26.483s11.857-26.483 26.483-26.483h44.138c14.626 0 26.483 11.857 26.483 26.483s-11.857 26.483-26.483 26.483zm1.651-150.237-10.478 36.705v16.428c0 14.626-11.857 26.483-26.483 26.483h-88.276c-14.626 0-26.483-11.857-26.483-26.483v-16.428l-10.478-36.705c-14.29-.901-25.262-13.022-24.74-27.331s12.346-25.599 26.664-25.457c14.318.141 25.917 11.662 26.156 25.979l22.607 7.53 10.055-16.772c-3.937-4.694-6.104-10.619-6.126-16.746 0-14.626 11.857-26.483 26.483-26.483s26.483 11.857 26.483 26.483c-.026 6.12-2.194 12.039-6.126 16.728l10.055 16.772 22.607-7.53c.203-14.368 11.828-25.952 26.196-26.106s26.238 11.179 26.75 25.539c.511 14.36-10.522 26.508-24.866 27.377zm113.108 150.237h-44.138c-14.626 0-26.483-11.857-26.483-26.483s11.857-26.483 26.483-26.483h44.138c14.626 0 26.483 11.857 26.483 26.483s-11.857 26.483-26.483 26.483z"/><path id="Shape_4_" d="m450.207 291.31h-44.138c-4.875 0-8.828 3.952-8.828 8.828s3.952 8.828 8.828 8.828h44.138c4.875 0 8.828-3.952 8.828-8.828s-3.953-8.828-8.828-8.828z"/><path id="Shape_5_" d="m61.793 308.966h44.138c4.875 0 8.828-3.952 8.828-8.828s-3.952-8.828-8.828-8.828h-44.138c-4.875 0-8.828 3.952-8.828 8.828s3.953 8.828 8.828 8.828z"/><circle id="Oval_2_" cx="335.448" cy="150.069" r="8.828"/><path id="Shape_6_" d="m220.69 291.31h-44.138c-4.875 0-8.828 3.952-8.828 8.828s3.952 8.828 8.828 8.828h44.138c4.875 0 8.828-3.952 8.828-8.828s-3.953-8.828-8.828-8.828z"/></g></g></g></svg>