<svg id="Capa_1" enable-background="new 0 0 512 512" height="512" viewBox="0 0 512 512" width="512" xmlns="http://www.w3.org/2000/svg"><g><path d="m309.923 141.341c0 29.726-24.187 53.923-53.923 53.923s-53.923-24.197-53.923-53.923c0-29.736 24.187-53.933 53.923-53.933s53.923 24.197 53.923 53.933z"/><path d="m371.814 56.122c-27.546-35.135-70.8-56.122-115.814-56.122s-88.268 20.987-115.814 56.122c-31.066 39.624-36.625 87.378-20.297 134.042 15.698 44.864 49.033 82.269 76.289 120.823 12.938 18.308 35.045 49.573 48.453 68.551 5.55 7.849 17.188 7.849 22.737 0 13.408-18.977 35.515-50.243 48.453-68.551 27.256-38.555 60.592-75.96 76.289-120.823 16.329-46.664 10.77-94.417-20.296-134.042zm-115.814 169.137c-46.274 0-83.919-37.645-83.919-83.918s37.645-83.929 83.919-83.929 83.919 37.655 83.919 83.929-37.645 83.918-83.919 83.918z"/><g><path d="m405.379 412.114c0 5.149-2.64 9.929-6.989 12.678l-134.381 84.888c-2.449 1.55-5.229 2.32-8.009 2.32s-5.559-.77-8.009-2.32l-134.382-84.888c-4.349-2.75-6.989-7.529-6.989-12.678s2.64-9.929 6.989-12.678l74.9-47.313 31.626 44.734c8.219 11.618 21.627 18.567 35.865 18.567s27.646-6.949 35.865-18.567l20.387-28.846 11.229-15.888 74.91 47.313c4.349 2.749 6.988 7.528 6.988 12.678z"/></g></g></svg>