<svg id="Capa_1" enable-background="new 0 0 512 512" height="512" viewBox="0 0 512 512" width="512" xmlns="http://www.w3.org/2000/svg"><g><path d="m412.229 0h-238.398c-4.143 0-7.5 3.358-7.5 7.5s3.357 7.5 7.5 7.5h238.397c11.468 0 20.798 9.328 20.798 20.794v440.412c0 11.466-9.33 20.794-20.798 20.794h-312.457c-11.468 0-20.798-9.328-20.798-20.794v-440.412c.001-11.466 9.331-20.794 20.798-20.794h44.54c4.143 0 7.5-3.358 7.5-7.5s-3.357-7.5-7.5-7.5h-44.54c-19.739 0-35.797 16.057-35.797 35.794v440.412c0 19.737 16.059 35.794 35.798 35.794h312.457c19.739 0 35.798-16.057 35.798-35.794v-440.412c-.001-19.737-16.059-35.794-35.798-35.794z"/><path d="m401.895 215.394h-261.931c-4.143 0-7.5 3.358-7.5 7.5s3.357 7.5 7.5 7.5h261.931c4.143 0 7.5-3.358 7.5-7.5s-3.358-7.5-7.5-7.5z"/><path d="m409.395 263.334c0-4.143-3.357-7.5-7.5-7.5h-261.931c-4.143 0-7.5 3.357-7.5 7.5s3.357 7.5 7.5 7.5h261.931c4.142 0 7.5-3.357 7.5-7.5z"/><path d="m256 296.274h-116.036c-4.143 0-7.5 3.357-7.5 7.5s3.357 7.5 7.5 7.5h116.036c4.143 0 7.5-3.357 7.5-7.5s-3.357-7.5-7.5-7.5z"/><path d="m256 336.714h-116.036c-4.143 0-7.5 3.357-7.5 7.5s3.357 7.5 7.5 7.5h116.036c4.143 0 7.5-3.357 7.5-7.5s-3.357-7.5-7.5-7.5z"/><path d="m132.464 142.014c0 4.142 3.357 7.5 7.5 7.5h261.931c4.143 0 7.5-3.358 7.5-7.5s-3.357-7.5-7.5-7.5h-261.931c-4.143 0-7.5 3.358-7.5 7.5z"/><path d="m401.895 174.954h-261.931c-4.143 0-7.5 3.358-7.5 7.5s3.357 7.5 7.5 7.5h261.931c4.143 0 7.5-3.358 7.5-7.5s-3.358-7.5-7.5-7.5z"/><path d="m112.268 230.422c4.158 0 7.529-3.37 7.529-7.528s-3.371-7.528-7.529-7.528-7.529 3.37-7.529 7.528 3.371 7.528 7.529 7.528z"/><path d="m112.268 149.541c4.158 0 7.529-3.37 7.529-7.528s-3.371-7.528-7.529-7.528-7.529 3.37-7.529 7.528 3.371 7.528 7.529 7.528z"/><path d="m112.268 189.981c4.158 0 7.529-3.37 7.529-7.528s-3.371-7.528-7.529-7.528-7.529 3.37-7.529 7.528 3.371 7.528 7.529 7.528z"/><path d="m112.268 270.862c4.158 0 7.529-3.37 7.529-7.528s-3.371-7.528-7.529-7.528-7.529 3.37-7.529 7.528 3.371 7.528 7.529 7.528z"/><path d="m112.268 311.302c4.158 0 7.529-3.37 7.529-7.528s-3.371-7.528-7.529-7.528-7.529 3.37-7.529 7.528 3.371 7.528 7.529 7.528z"/><path d="m112.268 351.742c4.158 0 7.529-3.37 7.529-7.528s-3.371-7.528-7.529-7.528-7.529 3.37-7.529 7.528 3.371 7.528 7.529 7.528z"/><path d="m256 377.154h-116.036c-4.143 0-7.5 3.357-7.5 7.5s3.357 7.5 7.5 7.5h116.036c4.143 0 7.5-3.357 7.5-7.5s-3.357-7.5-7.5-7.5z"/><path d="m112.268 392.182c4.158 0 7.529-3.37 7.529-7.528s-3.371-7.528-7.529-7.528-7.529 3.37-7.529 7.528 3.371 7.528 7.529 7.528z"/><path d="m263.5 425.095c0-4.143-3.357-7.5-7.5-7.5h-116.036c-4.143 0-7.5 3.357-7.5 7.5s3.357 7.5 7.5 7.5h116.036c4.143 0 7.5-3.358 7.5-7.5z"/><path d="m112.268 473.035h42.083c4.143 0 7.5-3.357 7.5-7.5s-3.357-7.5-7.5-7.5h-42.083c-4.143 0-7.5 3.357-7.5 7.5s3.357 7.5 7.5 7.5z"/><path d="m352.146 473.035h42.083c4.143 0 7.5-3.357 7.5-7.5s-3.357-7.5-7.5-7.5h-42.083c-4.143 0-7.5 3.357-7.5 7.5s3.358 7.5 7.5 7.5z"/><path d="m112.268 432.623c4.158 0 7.529-3.37 7.529-7.528s-3.371-7.528-7.529-7.528-7.529 3.37-7.529 7.528c0 4.157 3.371 7.528 7.529 7.528z"/><path d="m222.559 53.541c4.143 0 7.5-3.358 7.5-7.5s-3.357-7.5-7.5-7.5h-22.269c-4.143 0-7.5 3.358-7.5 7.5v54.935c0 4.142 3.357 7.5 7.5 7.5s7.5-3.358 7.5-7.5v-20.488h13c4.143 0 7.5-3.358 7.5-7.5s-3.357-7.5-7.5-7.5h-13v-11.947z"/><path d="m279.276 53.541c4.143 0 7.5-3.358 7.5-7.5s-3.357-7.5-7.5-7.5h-22.269c-4.143 0-7.5 3.358-7.5 7.5v54.935c0 4.142 3.357 7.5 7.5 7.5s7.5-3.358 7.5-7.5v-20.488h12.999c4.143 0 7.5-3.358 7.5-7.5s-3.357-7.5-7.5-7.5h-12.999v-11.947z"/><path d="m332.749 53.071c4.143 0 7.5-3.358 7.5-7.5s-3.357-7.5-7.5-7.5h-23.108c-4.143 0-7.5 3.358-7.5 7.5v54.834c0 4.142 3.357 7.5 7.5 7.5h23.108c4.143 0 7.5-3.358 7.5-7.5s-3.357-7.5-7.5-7.5h-15.608v-12.417h13.904c4.143 0 7.5-3.358 7.5-7.5s-3.357-7.5-7.5-7.5h-13.904v-12.417z"/><path d="m406.671 59.701c0-12.066-10.183-21.882-22.698-21.882h-14.708c-.003 0-.006 0-.009 0s-.006 0-.009 0c-4.143 0-7.5 3.358-7.5 7.5v55.34c0 4.142 3.357 7.5 7.5 7.5s7.5-3.358 7.5-7.5v-14.124l16.794 19.078c1.482 1.684 3.553 2.544 5.633 2.544 1.76 0 3.527-.616 4.952-1.871 3.109-2.737 3.411-7.476.675-10.585l-13.473-15.306c8.915-2.951 15.343-11.11 15.343-20.694zm-22.698 6.882c-1.685 0-4.462.011-7.147.023-.013-2.609-.023-5.286-.023-6.905 0-1.383-.007-4.144-.014-6.882h7.185c4.173 0 7.698 3.152 7.698 6.882s-3.526 6.882-7.699 6.882z"/><path d="m138.628 38.338c-19.395 0-35.174 15.777-35.174 35.17s15.779 35.17 35.174 35.17 35.174-15.777 35.174-35.17-15.78-35.17-35.174-35.17zm0 55.34c-11.124 0-20.174-9.048-20.174-20.17s9.05-20.17 20.174-20.17 20.174 9.048 20.174 20.17-9.05 20.17-20.174 20.17z"/><path d="m345.526 431.564c4.143 0 7.5-3.357 7.5-7.5v-3.753h2.978c13.611 0 24.685-11.072 24.685-24.683v-12.863c0-13.609-11.073-24.682-24.685-24.682h-2.978v-32.228h2.978c5.34 0 9.685 4.343 9.685 9.682v1.443c0 4.143 3.357 7.5 7.5 7.5s7.5-3.357 7.5-7.5v-1.443c0-13.609-11.073-24.682-24.685-24.682h-2.978v-6.052c0-4.143-3.357-7.5-7.5-7.5s-7.5 3.357-7.5 7.5v6.052h-2.979c-13.61 0-24.684 11.072-24.684 24.682v12.864c0 13.609 11.073 24.682 24.684 24.682h2.979v32.228h-2.979c-5.34 0-9.684-4.344-9.684-9.683 0-4.143-3.357-7.5-7.5-7.5s-7.5 3.357-7.5 7.5c0 13.61 11.073 24.683 24.684 24.683h2.979v3.753c0 4.143 3.358 7.5 7.5 7.5zm-10.478-73.48c-5.34 0-9.684-4.343-9.684-9.682v-12.864c0-5.339 4.344-9.682 9.684-9.682h2.979v32.228zm17.978 15h2.978c5.34 0 9.685 4.343 9.685 9.682v12.863c0 5.339-4.345 9.683-9.685 9.683h-2.978z"/></g></svg>