<svg id="Capa_1" enable-background="new 0 0 512 512" height="512" viewBox="0 0 512 512" width="512" xmlns="http://www.w3.org/2000/svg"><g><path d="m244.003 462.274h15v15h-15z"/><path d="m512 246.558h-27.931c4.93-8.367 6.298-18.379 4.537-26.995-1.736-8.49-6.136-15.237-12.231-19.447 12.861-11.697 19.423-25.674 18.307-39.72-1.043-13.125-9.062-24.464-20.928-29.591-6.649-2.874-13.862-3.636-21.197-2.431 4.402-11.706 4.191-23.586-.925-34.482-8.443-17.978-28.573-29.085-50.094-27.619-12.22.828-40.628 7.271-57.821 47.285-8.032-7.449-18.774-12.014-30.566-12.014-1.488 0-2.971.073-4.442.218-2.215-20.357-10.814-37.845-24.691-49.886-15.498-13.447-36.55-19.286-59.281-16.449-20.854 2.605-38.223 12.401-50.229 28.331l11.979 9.028c9.507-12.613 23.376-20.384 40.11-22.474 18.452-2.306 35.352 2.275 47.591 12.894 12.607 10.938 19.738 27.89 20.08 47.73l.173 10.075 9.602-3.058c2.936-.935 6.001-1.409 9.11-1.409 16.542 0 30 13.458 30 30 0 4.201-.852 8.265-2.532 12.078l-2.131 4.837 3.839 3.633c9.781 9.258 15.168 21.799 15.168 35.313 0 18.977-10.977 36.144-28.089 44.153h-56.183l-16.012-69.744 30.731-22.987-8.984-12.012-25.417 19.012-12.799-55.749-14.62 3.356 23.034 100.328-45.942-8.494-2.727 14.75 52.326 9.674 5.02 21.864h-97.297c-2.632-6.417-3.985-13.216-3.985-20.283 0-9.612 2.569-19.04 7.431-27.263l2.547-4.31-3.003-4.006c-4.563-6.086-6.975-13.337-6.975-20.969 0-12.412 6.365-23.64 17.027-30.036l4.964-2.978-1.623-5.557c-4.639-15.878-3.639-32.539 2.814-46.913l-13.685-6.144c-7.189 16.014-8.881 34.263-4.902 51.941-3.123 2.403-5.925 5.16-8.374 8.188-14.577-10.804-32.234-16.684-50.565-16.684-46.873 0-85.006 38.133-85.006 85.006 0 14.181 3.421 27.783 9.976 40.006h-27.179v45h15v28.216c0 41.904 16.429 81.41 46.26 111.241s69.337 46.259 111.24 46.259h56.502v-15h-56.502c-37.897 0-73.636-14.868-100.634-41.866-26.997-26.993-41.866-62.732-41.866-100.63v-28.216h452v28.216c0 37.896-14.869 73.636-41.866 100.634-26.998 26.998-62.737 41.866-100.634 41.866h-65.497v15h65.497c41.903 0 81.409-16.429 111.24-46.26s46.26-69.336 46.26-111.24v-28.216h15zm-73.6 0c-.396-10.251 2.521-21.843 24.107-36.138 8.464 1.153 10.853 9.467 11.402 12.148 1.688 8.256-1.077 19.045-10.902 23.99zm29.404-101.984c6.856 2.962 11.313 9.321 11.924 17.01.965 12.144-7.511 24.852-23.256 34.864-26.344 16.754-33.23 32.077-32.959 50.11h-14.374c-7.447-15.76-19.595-44.507 28.194-94.973 10.51-8.283 21.595-10.847 30.471-7.011zm-95.31 57.831c0-15.98-5.764-30.925-16.331-42.602 1.32-4.274 1.987-8.715 1.987-13.26 0-6.559-1.422-12.789-3.956-18.414 9.648-28.418 27.163-45.455 48.357-46.891 15.152-1.031 29.759 6.797 35.502 19.029 5.837 12.43 1.857 26.839-11.207 40.573-23.943 25.172-37.217 49.234-39.451 71.516-1.446 14.411 1.89 25.853 5.321 34.202h-37.982c11.185-11.649 17.76-27.359 17.76-44.153zm-340.294 4.147c0-38.602 31.405-70.006 70.006-70.006 15.644 0 30.688 5.204 42.933 14.728-2.321 5.806-3.588 12.057-3.588 18.454 0 9.245 2.479 18.102 7.212 25.888-4.731 9.478-7.212 19.982-7.212 30.66 0 6.982 1.022 13.767 3.04 20.283h-99.826c-8.227-11.762-12.565-25.515-12.565-40.007zm464.8 70.006h-482v-15h482z"/><path d="m116.353 186.031-14.339-4.404-4.776 15.554-15.553-4.776-4.404 14.34 15.553 4.775-4.775 15.553 14.339 4.403 4.776-15.553 15.553 4.776 4.403-14.34-15.553-4.776z"/><path d="m245.017 73.248h15v15h-15z" transform="matrix(.974 -.228 .228 .974 -11.759 59.699)"/><path d="m397.45 99.258h15v15h-15z"/></g></svg>